<svg width="81" height="20" viewBox="0 0 81 20" fill="none" xmlns="http://www.w3.org/2000/svg">
<g filter="url(#filter0_iii_1202_5569)">
<g clip-path="url(#clip0_1202_5569)">
<rect width="20" height="20" rx="4" fill="#A3E33A"/>
<rect width="20" height="20" fill="url(#paint0_linear_1202_5569)"/>
<g filter="url(#filter1_d_1202_5569)">
<path opacity="0.7" d="M11.9316 3.6574C12.8699 4.59562 11.7036 7.283 9.32681 9.65982C6.94999 12.0366 4.26261 13.2029 3.32439 12.2646C2.38617 11.3264 3.55239 8.63905 5.92922 6.26222C8.30604 3.8854 10.9934 2.71918 11.9316 3.6574Z" fill="url(#paint1_linear_1202_5569)"/>
<path opacity="0.5" d="M13.9703 5.69598C14.9085 6.6342 13.7423 9.32157 11.3655 11.6984C8.98865 14.0752 6.30128 15.2414 5.36306 14.3032C4.42484 13.365 5.59106 10.6776 7.96788 8.3008C10.3447 5.92397 13.0321 4.75776 13.9703 5.69598Z" fill="url(#paint2_linear_1202_5569)"/>
<path opacity="0.3" d="M16.0089 7.73455C16.9472 8.67277 15.7809 11.3601 13.4041 13.737C11.0273 16.1138 8.33991 17.28 7.40169 16.3418C6.46347 15.4036 7.62969 12.7162 10.0065 10.3394C12.3833 7.96255 15.0707 6.79633 16.0089 7.73455Z" fill="url(#paint3_linear_1202_5569)"/>
</g>
</g>
<rect x="1" y="1" width="18" height="18" rx="3" stroke="url(#paint4_linear_1202_5569)" stroke-width="2"/>
</g>
<path d="M28 13.7499V6.0999H33.49V7.52865H29.8V9.39615H33.0513V10.8249H29.8V13.7499H28Z" fill="#041109"/>
<path d="M34.0458 13.7499V7.6974H35.7671V8.54115C36.1496 7.82115 36.7346 7.50615 37.3533 7.50615C37.6008 7.50615 37.8258 7.57365 37.9496 7.6974V9.14865C37.7471 9.10365 37.5333 9.08115 37.2633 9.08115C36.2283 9.08115 35.7671 9.66615 35.7671 10.6224V13.7499H34.0458Z" fill="#041109"/>
<path d="M44.007 11.7587C43.692 13.1537 42.567 13.9299 41.082 13.9299C39.2032 13.9299 38.0445 12.7149 38.0445 10.7237C38.0445 8.6649 39.2145 7.50615 41.0145 7.50615C42.8257 7.50615 43.962 8.7099 43.962 10.6899V11.0724H39.7995C39.8895 12.0399 40.3395 12.5574 41.082 12.5574C41.6445 12.5574 42.027 12.3099 42.207 11.7587H44.007ZM41.0145 8.87865C40.3732 8.87865 39.9682 9.2949 39.8332 10.0824H42.1845C42.0495 9.2949 41.6445 8.87865 41.0145 8.87865Z" fill="#041109"/>
<path d="M46.9535 13.9299C45.401 13.9299 44.4223 12.7149 44.4223 10.7237C44.4223 8.6649 45.4235 7.50615 46.9535 7.50615C47.5948 7.50615 48.1123 7.77615 48.4835 8.29365V7.6974H50.2048V16.2362H48.4835V13.1087C48.1123 13.6374 47.5835 13.9299 46.9535 13.9299ZM47.3248 12.5349C48.0898 12.5349 48.4835 11.9049 48.4835 10.7237C48.4835 9.55365 48.0785 8.90115 47.3248 8.90115C46.5823 8.90115 46.1885 9.5424 46.1885 10.7237C46.1885 11.8937 46.5935 12.5349 47.3248 12.5349Z" fill="#041109"/>
<path d="M54.8592 11.1737V7.6974H56.5805V13.7499H54.8592V12.9399C54.4655 13.6149 53.8692 13.9299 53.138 13.9299C51.9904 13.9299 51.1467 13.2324 51.1467 11.7249V7.6974H52.868V11.3762C52.868 12.1524 53.1605 12.5349 53.768 12.5349C54.4317 12.5349 54.8592 11.9499 54.8592 11.1737Z" fill="#041109"/>
<path d="M63.2282 11.7587C62.9132 13.1537 61.7882 13.9299 60.3032 13.9299C58.4245 13.9299 57.2657 12.7149 57.2657 10.7237C57.2657 8.6649 58.4357 7.50615 60.2357 7.50615C62.047 7.50615 63.1832 8.7099 63.1832 10.6899V11.0724H59.0207C59.1107 12.0399 59.5607 12.5574 60.3032 12.5574C60.8657 12.5574 61.2482 12.3099 61.4282 11.7587H63.2282ZM60.2357 8.87865C59.5945 8.87865 59.1895 9.2949 59.0545 10.0824H61.4057C61.2707 9.2949 60.8657 8.87865 60.2357 8.87865Z" fill="#041109"/>
<path d="M63.9023 13.7499V7.6974H65.6235V8.49615C66.0173 7.82115 66.636 7.50615 67.3785 7.50615C68.5373 7.50615 69.4035 8.2149 69.4035 9.71115V13.7499H67.6823V10.0599C67.6823 9.2949 67.3785 8.90115 66.7485 8.90115C66.0623 8.90115 65.6235 9.4974 65.6235 10.2737V13.7499H63.9023Z" fill="#041109"/>
<path d="M75.746 9.8799H74.0247C73.9122 9.17115 73.5072 8.90115 73.0122 8.90115C72.2472 8.90115 71.8535 9.5424 71.8535 10.7237C71.8535 11.8937 72.2697 12.5349 73.0572 12.5349C73.5747 12.5349 73.9347 12.2424 74.0585 11.6799H75.7797C75.521 13.1987 74.4297 13.9299 73.0235 13.9299C71.2122 13.9299 70.0872 12.7037 70.0872 10.7237C70.0872 8.6649 71.2347 7.50615 73.0122 7.50615C74.4185 7.50615 75.5322 8.29365 75.746 9.8799Z" fill="#041109"/>
<path d="M76.4271 7.0899V5.6499H78.1484V7.0899H76.4271ZM76.4271 13.7499V7.6974H78.1484V13.7499H76.4271Z" fill="#041109"/>
<path d="M79.0805 7.0899V5.6499H80.8018V7.0899H79.0805ZM79.0805 13.7499V7.6974H80.8018V13.7499H79.0805Z" fill="#041109"/>
<defs>
<filter id="filter0_iii_1202_5569" x="0" y="-3" width="20" height="26" filterUnits="userSpaceOnUse" color-interpolation-filters="sRGB">
<feFlood flood-opacity="0" result="BackgroundImageFix"/>
<feBlend mode="normal" in="SourceGraphic" in2="BackgroundImageFix" result="shape"/>
<feColorMatrix in="SourceAlpha" type="matrix" values="0 0 0 0 0 0 0 0 0 0 0 0 0 0 0 0 0 0 127 0" result="hardAlpha"/>
<feOffset dy="-3"/>
<feGaussianBlur stdDeviation="1.5"/>
<feComposite in2="hardAlpha" operator="arithmetic" k2="-1" k3="1"/>
<feColorMatrix type="matrix" values="0 0 0 0 0 0 0 0 0 0 0 0 0 0 0 0 0 0 0.1 0"/>
<feBlend mode="normal" in2="shape" result="effect1_innerShadow_1202_5569"/>
<feColorMatrix in="SourceAlpha" type="matrix" values="0 0 0 0 0 0 0 0 0 0 0 0 0 0 0 0 0 0 127 0" result="hardAlpha"/>
<feOffset dy="3"/>
<feGaussianBlur stdDeviation="1.5"/>
<feComposite in2="hardAlpha" operator="arithmetic" k2="-1" k3="1"/>
<feColorMatrix type="matrix" values="0 0 0 0 1 0 0 0 0 1 0 0 0 0 1 0 0 0 0.1 0"/>
<feBlend mode="normal" in2="effect1_innerShadow_1202_5569" result="effect2_innerShadow_1202_5569"/>
<feColorMatrix in="SourceAlpha" type="matrix" values="0 0 0 0 0 0 0 0 0 0 0 0 0 0 0 0 0 0 127 0" result="hardAlpha"/>
<feMorphology radius="1" operator="erode" in="SourceAlpha" result="effect3_innerShadow_1202_5569"/>
<feOffset/>
<feComposite in2="hardAlpha" operator="arithmetic" k2="-1" k3="1"/>
<feColorMatrix type="matrix" values="0 0 0 0 0.0627451 0 0 0 0 0.0941176 0 0 0 0 0.156863 0 0 0 0.24 0"/>
<feBlend mode="normal" in2="effect2_innerShadow_1202_5569" result="effect3_innerShadow_1202_5569"/>
</filter>
<filter id="filter1_d_1202_5569" x="-0.166667" y="1.20833" width="19.6667" height="22.3333" filterUnits="userSpaceOnUse" color-interpolation-filters="sRGB">
<feFlood flood-opacity="0" result="BackgroundImageFix"/>
<feColorMatrix in="SourceAlpha" type="matrix" values="0 0 0 0 0 0 0 0 0 0 0 0 0 0 0 0 0 0 127 0" result="hardAlpha"/>
<feMorphology radius="1.58333" operator="erode" in="SourceAlpha" result="effect1_dropShadow_1202_5569"/>
<feOffset dy="2.375"/>
<feGaussianBlur stdDeviation="2.375"/>
<feComposite in2="hardAlpha" operator="out"/>
<feColorMatrix type="matrix" values="0 0 0 0 0.141176 0 0 0 0 0.141176 0 0 0 0 0.141176 0 0 0 0.1 0"/>
<feBlend mode="normal" in2="BackgroundImageFix" result="effect1_dropShadow_1202_5569"/>
<feBlend mode="normal" in="SourceGraphic" in2="effect1_dropShadow_1202_5569" result="shape"/>
</filter>
<linearGradient id="paint0_linear_1202_5569" x1="10" y1="2.48353e-07" x2="10.8333" y2="20" gradientUnits="userSpaceOnUse">
<stop stop-color="white" stop-opacity="0"/>
<stop offset="1" stop-color="white" stop-opacity="0.12"/>
</linearGradient>
<linearGradient id="paint1_linear_1202_5569" x1="7.62801" y1="3.33301" x2="7.62801" y2="12.589" gradientUnits="userSpaceOnUse">
<stop stop-color="#588212" stop-opacity="0.8"/>
<stop offset="1" stop-color="#588212" stop-opacity="0.5"/>
</linearGradient>
<linearGradient id="paint2_linear_1202_5569" x1="9.66668" y1="5.37158" x2="9.66668" y2="14.6276" gradientUnits="userSpaceOnUse">
<stop stop-color="#588212" stop-opacity="0.8"/>
<stop offset="1" stop-color="#588212" stop-opacity="0.5"/>
</linearGradient>
<linearGradient id="paint3_linear_1202_5569" x1="11.7053" y1="7.41016" x2="11.7053" y2="16.6662" gradientUnits="userSpaceOnUse">
<stop stop-color="#588212" stop-opacity="0.8"/>
<stop offset="1" stop-color="#588212" stop-opacity="0.5"/>
</linearGradient>
<linearGradient id="paint4_linear_1202_5569" x1="10" y1="0" x2="10" y2="20" gradientUnits="userSpaceOnUse">
<stop stop-color="white" stop-opacity="0.12"/>
<stop offset="1" stop-color="white" stop-opacity="0"/>
</linearGradient>
<clipPath id="clip0_1202_5569">
<rect width="20" height="20" rx="4" fill="white"/>
</clipPath>
</defs>
</svg>
